<?xml version="1.0" encoding="utf-8"?>
<!-- Generator: Adobe Illustrator 21.0.0, SVG Export Plug-In . SVG Version: 6.00 Build 0)  -->
<svg version="1.1" id="ed87c231-0a5e-4106-ab1d-a76c85fd660b"
	 xmlns="http://www.w3.org/2000/svg" xmlns:xlink="http://www.w3.org/1999/xlink" x="0px" y="0px" viewBox="0 0 601.8 539"
	 style="enable-background:new 0 0 601.8 539;" xml:space="preserve">
<style type="text/css">
	.st0{fill:#F2F2F2;}
	.st1{fill:#FFFFFF;}
	.st2{fill:#478901;}
	.st3{fill:#2F2E41;}
	.st4{fill:#3F3D56;}
	.st5{fill:#C9A83A;}
	.st6{fill:#CCCCCC;}
</style>
<path class="st0" d="M596.5,443.6c-5.5,33.7-30.1,59.8-56.4,82.6c-3.7,3.2-7.3,6.3-11,9.4c0,0-0.1,0-0.1,0.1
	c-0.2,0.1-0.4,0.3-0.5,0.4c-0.8,0.6-1.5,1.3-2.3,1.9l0.5,0.1l1.5,0.5c-0.5-0.1-1-0.3-1.5-0.4c-0.2,0-0.3-0.1-0.5-0.1
	c-17.4-4.7-35.2-9.9-49.4-20.9c-14.8-11.4-24.9-30.9-19.8-48.9c0.7-2.4,1.6-4.6,2.8-6.8c0.5-0.9,1-1.8,1.6-2.6
	c10.5-16.4,32.3-21.3,48.7-10.8c5.5,3.5,9.9,8.4,12.7,14.2c-0.2-19.8-18.3-34.2-35.3-44.5c-17-10.2-36.2-21.2-41.5-40.3
	c-3-10.6-0.5-21.6,5.4-30.8c0.2-0.3,0.4-0.6,0.6-0.8c7.2-10.8,18.1-18.5,30.7-21.6c23.5-5.3,48.1,4.5,67.4,19
	C581,366.5,602.7,405.3,596.5,443.6z"/>
<path class="st1" d="M546.6,406.4c5.4,6.6,9.9,13.9,13.2,21.7c2.8,7,4.6,14.4,5.3,22c1.4,15.5-1.5,31.2-7.4,45.5
	c-4.6,10.9-10.5,21.2-17.6,30.6c-3.7,3.2-7.3,6.3-11,9.4c0,0-0.1,0-0.1,0.1c-0.2,0.1-0.4,0.3-0.5,0.4c-0.8,0.6-1.5,1.3-2.3,1.9
	l0.5,0.1l1.5,0.5c-0.5-0.1-1-0.3-1.5-0.4c-0.2,0-0.3-0.1-0.5-0.1c0-25.1-12.1-48.7-32.6-63.3c-10.1-7-21.7-11.6-33.9-13.3
	c0.5-0.9,1-1.8,1.6-2.6c4.7,0.7,9.4,1.9,13.9,3.4c16.1,5.5,30.1,16,39.8,30.1c8.7,12.8,13.6,27.7,14.1,43.2c0.6-0.7,1.2-1.4,1.8-2.1
	c11.2-13.3,20.8-28.1,26.5-44.6c5-14,6.5-29,4.3-43.7c-2.5-16-10.7-30.1-21.6-42c-11.6-12.7-25.5-23.5-40.1-32.5
	c-14.9-9.3-30.9-16.7-47.7-22.1c-0.8-0.3-1.2-1.1-1-1.9c0.1-0.3,0.3-0.6,0.6-0.8c0.3-0.2,0.7-0.2,1-0.1c2.1,0.7,4.1,1.3,6.2,2.1
	c17,6,33.2,14.1,48.2,24.1C521.7,381.5,535.6,392.9,546.6,406.4z"/>
<path class="st2" d="M250.7,329.5c-3.5,0-6.3-2.7-6.6-6.2l-1-14.9c-0.2-3.6,2.5-6.8,6.2-7l117.1-7.7c7.8-0.5,14.5,5.4,15,13.1
	c0.5,7.8-5.4,14.5-13.1,15c0,0,0,0,0,0l-117.1,7.7C251,329.5,250.8,329.5,250.7,329.5z"/>
<path class="st3" d="M273.8,331.4c-3.5,0-6.5-2.8-6.6-6.4l-0.8-22.3c-0.1-3.6,2.7-6.7,6.3-6.8c0,0,0,0,0,0l96.3-3.6
	c3.6-0.1,6.7,2.7,6.8,6.3l0.8,22.3c0.1,3.6-2.7,6.7-6.3,6.8c0,0,0,0,0,0l-96.3,3.6C274,331.4,273.9,331.4,273.8,331.4z"/>
<path class="st3" d="M386.6,537.3h-15c-3.6,0-6.6-3-6.6-6.6V405.8c0-3.6,3-6.6,6.6-6.6h15c3.6,0,6.6,3,6.6,6.6v124.9
	C393.2,534.3,390.3,537.3,386.6,537.3z"/>
<path class="st3" d="M320.1,471.3l-12.8-7.8c-3.1-1.9-4.1-5.9-2.2-9.1l64.7-106.8c1.9-3.1,5.9-4.1,9.1-2.2l12.8,7.8
	c3.1,1.9,4.1,5.9,2.2,9.1L329.2,469C327.3,472.2,323.3,473.1,320.1,471.3z"/>
<circle class="st2" cx="363.9" cy="217.2" r="51.8"/>
<path class="st3" d="M335.9,234.8c-1.7-0.5-3.2-1.4-4.5-2.6c-1.7-1.7-2.6-4.1-2.4-6.5c0.1-1.7,1-3.3,2.5-4.3
	c1.9-1.2,4.3-1.2,6.8-0.1l-0.1-20.2l2,0l0.1,23.8l-1.6-1c-1.8-1.1-4.4-1.9-6.2-0.8c-0.9,0.6-1.5,1.6-1.5,2.8
	c-0.1,1.8,0.5,3.6,1.8,4.9c2.2,2.1,5.5,2.8,9.2,3.4l-0.3,2C339.7,235.9,337.8,235.4,335.9,234.8z"/>
<rect x="321.5" y="196.3" transform="matrix(0.1309 -0.9914 0.9914 0.1309 80.2626 495.1544)" class="st3" width="2" height="10.9"/>
<rect x="355.8" y="200.8" transform="matrix(0.1309 -0.9914 0.9914 0.1309 105.5164 532.9966)" class="st3" width="2" height="10.9"/>
<path class="st3" d="M407.1,439.3h-87.3c-4.8,0-8.6-3.9-8.6-8.6l18.3-140.1c0-4.7,3.9-8.6,8.6-8.6h31c25.8,0,46.6,20.9,46.7,46.7
	v102C415.7,435.4,411.9,439.3,407.1,439.3z"/>
<path class="st2" d="M385.1,431.8c-1.1,2.4-3.5,3.9-6.1,3.9l-15-0.1c-3.6,0-6.6-3-6.5-6.7c0,0,0,0,0,0l1-117.4
	c0.1-7.8,6.4-14,14.2-14c7.8,0.1,14,6.4,14,14.2c0,0,0,0,0,0l-1,117.4C385.7,430.1,385.5,431,385.1,431.8z"/>
<path class="st3" d="M391.7,400.5c-1.1,2.4-3.5,3.9-6.1,3.9l-25.6-0.2c-3.6,0-6.6-3-6.5-6.7l0.8-96.4c0-3.6,3-6.6,6.7-6.5
	c0,0,0,0,0,0l25.6,0.2c3.6,0,6.6,3,6.5,6.7c0,0,0,0,0,0l-0.8,96.4C392.3,398.7,392.1,399.7,391.7,400.5z"/>
<path class="st3" d="M364.9,186.5c-6.9-5.7-16.2-0.3-24-1.1c-7.5-0.7-13.5-7.3-15.2-14.4c-1.9-8.3,2.2-16.7,8.5-22
	c6.9-5.8,16-7.6,24.8-6.7c10,1,19.3,5.5,27.6,11c8,5.1,15.5,11.2,22.1,18c6,6.3,11,13.9,12.8,22.6c1.6,7.9,0.7,16.6-3.9,23.4
	c-2.4,3.5-5.7,6.3-9.5,8.1c-4,2-8.2,3.5-12,5.8c-5.8,3.5-11.3,10.5-9.4,17.7c0.4,1.6,1.2,3,2.3,4.2c1.3,1.4,3.7-0.5,2.3-2
	c-2.4-2.5-2.3-5.9-1.2-9c1.4-3.5,3.9-6.4,7.2-8.2c4-2.4,8.5-3.9,12.6-6.1c3.9-2,7.3-4.9,9.9-8.5c4.8-7,6.2-16,4.9-24.3
	c-1.4-9-6.2-17.1-12.1-23.8c-6.4-7.3-14.3-13.5-22.3-19c-8.6-5.9-18.1-10.9-28.5-12.6c-9-1.4-18.8-0.3-26.5,4.8
	c-7.3,4.7-12.7,12.7-13.1,21.5c-0.3,8.2,3.9,15.8,10.9,20c3.5,2,7.6,2.9,11.6,2.5c4.3-0.4,8.6-1.8,13-1.5c2,0.1,3.9,0.8,5.4,2.1
	C364.6,190.2,366.4,187.7,364.9,186.5L364.9,186.5z"/>
<path class="st3" d="M304,456.2c0-0.1,0-0.2,0.1-0.3c0.4-1.7,1.4-3.2,2.9-4.2l12.6-8.1c3.1-2,7.1-1.1,9.1,2l38.8,60.2
	c2,3.1,1.1,7.1-2,9.1l-12.6,8.1c-3.1,2-7.1,1.1-9.1-2L305,460.9C304.1,459.5,303.7,457.8,304,456.2z"/>
<path id="a8ac6166-3ec4-44bd-a940-12ae5b8b67a0" class="st4" d="M256.8,59.4c-2-4.7-6.6-7.8-11.7-7.8H12.6C5.6,51.7,0,57.3,0,64.3
	v294.2c0,7,5.6,12.6,12.6,12.6h232.6c7,0,12.6-5.6,12.6-12.6V64.3C257.8,62.6,257.5,61,256.8,59.4L256.8,59.4z M255,358.5
	c0,5.4-4.4,9.8-9.8,9.8H12.6c-5.4,0-9.8-4.4-9.8-9.8V64.3c0-5.4,4.4-9.8,9.8-9.8h232.6c4,0,7.6,2.5,9.1,6.2c0.1,0.4,0.3,0.7,0.4,1.1
	c0.2,0.8,0.3,1.7,0.3,2.5L255,358.5z"/>
<path id="a2e3fa0b-f178-421f-a74c-d97ebf543334" class="st4" d="M208.3,121.1h-70.1c-3.1,0-5.6-2.5-5.6-5.6c0-3.1,2.5-5.6,5.6-5.6
	c0,0,0,0,0,0h70.1c3.1,0,5.6,2.5,5.6,5.6C213.9,118.6,211.4,121.1,208.3,121.1C208.3,121.1,208.3,121.1,208.3,121.1L208.3,121.1z"/>
<path id="b8b248e7-1a59-4f26-9a1f-f08ba006a4a5" class="st4" d="M208.3,150.5h-70.1c-3.1,0-5.6-2.5-5.6-5.6c0-3.1,2.5-5.6,5.6-5.6
	c0,0,0,0,0,0h70.1c3.1,0,5.6,2.5,5.6,5.6C213.9,148,211.4,150.5,208.3,150.5C208.3,150.5,208.3,150.5,208.3,150.5L208.3,150.5z"/>
<path id="bda578db-f3c3-41a7-b056-20e03a5846b5" class="st5" d="M102.3,167.3H51.1c-3.5,0-6.3-2.8-6.3-6.3v-60.4
	c0-3.5,2.8-6.3,6.3-6.3h51.2c3.5,0,6.3,2.8,6.3,6.3V161C108.6,164.5,105.8,167.3,102.3,167.3z"/>
<path id="f14e980f-453d-4106-8f6f-6df09975b283" class="st6" d="M207.8,210.8H49.5c-3.1,0-5.6-2.5-5.6-5.6c0-3.1,2.5-5.6,5.6-5.6
	h158.3c3.1,0,5.6,2.5,5.6,5.6C213.4,208.3,210.9,210.8,207.8,210.8C207.8,210.8,207.8,210.8,207.8,210.8z"/>
<path id="a41c7d3f-1ab8-4fa8-8fe0-c7e1addd1852" class="st6" d="M207.8,240.2H49.5c-3.1,0-5.6-2.5-5.6-5.6c0-3.1,2.5-5.6,5.6-5.6
	h158.3c3.1,0,5.6,2.5,5.6,5.6C213.4,237.7,210.9,240.2,207.8,240.2C207.8,240.2,207.8,240.2,207.8,240.2z"/>
<path id="edc5b707-0197-4423-9b0e-a0519931be3d" class="st6" d="M207.8,269.6H49.5c-3.1,0-5.6-2.5-5.6-5.6c0-3.1,2.5-5.6,5.6-5.6
	h158.3c3.1,0,5.6,2.5,5.6,5.6C213.4,267.1,210.9,269.6,207.8,269.6C207.8,269.6,207.8,269.6,207.8,269.6z"/>
<path id="fb042130-6ee2-42a1-966d-03aff1c9a355" class="st6" d="M207.8,299.1H49.5c-3.1,0-5.6-2.5-5.6-5.6c0-3.1,2.5-5.6,5.6-5.6
	h158.3c3.1,0,5.6,2.5,5.6,5.6C213.4,296.6,210.9,299.1,207.8,299.1C207.8,299.1,207.8,299.1,207.8,299.1z"/>
<path id="be06b282-4586-4a92-87f7-3b8195752fb5" class="st6" d="M207.8,328.5H49.5c-3.1,0-5.6-2.5-5.6-5.6c0-3.1,2.5-5.6,5.6-5.6
	h158.3c3.1,0,5.6,2.5,5.6,5.6C213.4,326,210.9,328.5,207.8,328.5C207.8,328.5,207.8,328.5,207.8,328.5z"/>
<circle id="b1bf23b1-fd72-4a0f-8358-88f260cf5936" class="st2" cx="258.6" cy="54.1" r="54.1"/>
<path id="a3de7fb3-a6ab-4159-b608-3b82343f6a5d" class="st1" d="M253.2,74.7c-1.2,0-2.4-0.4-3.4-1.1l-0.1,0l-12.7-9.7
	c-2.5-1.9-2.9-5.4-1-7.9s5.4-2.9,7.9-1l8.2,6.3l19.5-25.4c1.9-2.5,5.4-2.9,7.9-1c0,0,0,0,0,0l0,0l-0.1,0.2l0.1-0.2
	c2.5,1.9,2.9,5.4,1,7.9l-22.9,29.8C256.6,73.9,255,74.7,253.2,74.7L253.2,74.7z"/>
<path class="st4" d="M600.8,539h-368c-0.6,0-1-0.4-1-1s0.4-1,1-1h368c0.6,0,1,0.4,1,1S601.4,539,600.8,539z"/>
</svg>
