<?xml version="1.0" encoding="utf-8"?>
<!-- Generator: Adobe Illustrator 21.0.0, SVG Export Plug-In . SVG Version: 6.00 Build 0)  -->
<svg version="1.1" id="b4f32226-de22-4831-ab78-ba30a904d18e"
	 xmlns="http://www.w3.org/2000/svg" xmlns:xlink="http://www.w3.org/1999/xlink" x="0px" y="0px" viewBox="0 0 722 756.6"
	 style="enable-background:new 0 0 722 756.6;" xml:space="preserve">
<style type="text/css">
	.st0{fill:none;stroke:#3AD29F;stroke-width:2;stroke-miterlimit:10;stroke-dasharray:12;}
	.st1{fill:url(#SVGID_1_);}
	.st2{fill:#BE7C5E;}
	.st3{fill:url(#SVGID_2_);}
	.st4{fill:url(#SVGID_3_);}
	.st5{fill:#FFFFFF;}
	.st6{fill:#478901;}
	.st7{fill:#DBDBDB;}
	.st8{fill:url(#SVGID_4_);}
	.st9{fill:url(#SVGID_5_);}
	.st10{fill:#C9A83A;}
	.st11{fill:url(#SVGID_6_);}
	.st12{fill:url(#SVGID_7_);}
	.st13{opacity:0.5;}
	.st14{fill:url(#SVGID_8_);}
	.st15{fill:url(#SVGID_9_);}
</style>
<title>confirmed</title>
<circle class="st0" cx="361" cy="395.6" r="297"/>
<circle class="st0" cx="361" cy="395.6" r="360"/>
<linearGradient id="SVGID_1_" gradientUnits="userSpaceOnUse" x1="635.635" y1="-32.4499" x2="635.635" y2="256.7499" gradientTransform="matrix(1 0 0 -1 -238.99 685.78)">
	<stop  offset="0" style="stop-color:#808080;stop-opacity:0.25"/>
	<stop  offset="0.54" style="stop-color:#808080;stop-opacity:0.12"/>
	<stop  offset="1" style="stop-color:#808080;stop-opacity:0.1"/>
</linearGradient>
<path class="st1" d="M601.9,510.3c0-44.9-36.3-81.2-81.2-81.2c-39,0-72.5,27.7-79.8,66.1l-249.6-6.8l2.7,42.9
	c0,0-35.6,82.1,151.5,104v83h216.2v-138C586.6,565.7,601.9,539.1,601.9,510.3z"/>
<path class="st2" d="M202.7,533c0,0-34.1,78.6,145.1,99.6v79.5h207.1V501.6L200,492L202.7,533z"/>
<linearGradient id="SVGID_2_" gradientUnits="userSpaceOnUse" x1="457.3343" y1="463.1722" x2="457.3343" y2="612.4898" gradientTransform="matrix(1 0 0 -1 -238.99 685.78)">
	<stop  offset="0" style="stop-color:#808080;stop-opacity:0.25"/>
	<stop  offset="0.54" style="stop-color:#808080;stop-opacity:0.12"/>
	<stop  offset="1" style="stop-color:#808080;stop-opacity:0.1"/>
</linearGradient>
<path class="st3" d="M306.2,204.9L306.2,204.9c-11.2,17.7-34.7,23.1-52.5,11.9l-111.2-73.3c-17.7-11.2-23.1-34.7-11.9-52.5l0,0
	c11.2-17.7,34.7-23,52.5-11.9l111.2,73.3C311.9,163.6,317.3,187,306.2,204.9z"/>
<path class="st2" d="M300,200.9L300,200.9c-10.4,16.5-32.3,21.4-48.8,11.1l-103.4-68.2c-16.5-10.4-21.4-32.3-11.1-48.8l0,0
	c10.4-16.5,32.3-21.4,48.8-11.1L288.9,152C305.4,162.5,310.4,184.3,300,200.9z"/>
<circle class="st2" cx="515.5" cy="512.9" r="77.8"/>
<linearGradient id="SVGID_3_" gradientUnits="userSpaceOnUse" x1="591.52" y1="103.81" x2="591.52" y2="685.77" gradientTransform="matrix(1 0 0 -1 -238.99 685.77)">
	<stop  offset="0" style="stop-color:#808080;stop-opacity:0.25"/>
	<stop  offset="0.54" style="stop-color:#808080;stop-opacity:0.12"/>
	<stop  offset="1" style="stop-color:#808080;stop-opacity:0.1"/>
</linearGradient>
<path class="st4" d="M203.6,0h297.9c6.8,0,12.3,5.5,12.3,12.3v557.5c0,6.8-5.5,12.3-12.3,12.3H203.6c-6.8,0-12.3-5.5-12.3-12.3V12.3
	C191.3,5.5,196.8,0,203.6,0z"/>
<path class="st5" d="M209.3,7.9h286.4c7.5,0,13.6,6.1,13.6,13.6v539c0,7.5-6.1,13.6-13.6,13.6H209.3c-7.5,0-13.6-6.1-13.6-13.6v-539
	C195.7,14,201.8,7.9,209.3,7.9z"/>
<path class="st6" d="M431.3,22.1c-1.9,12.4-12.5,21.6-25.1,21.6H297.9c-12.5,0-23.2-9.2-25.1-21.6h-57.4c-6.6,0-11.9,5.3-11.9,11.9
	c0,0,0,0,0,0v514c0,6.6,5.3,11.9,11.9,11.9c0,0,0,0,0,0h274.1c6.6,0,11.9-5.3,11.9-11.9c0,0,0,0,0,0V34c0-6.6-5.3-11.9-11.9-11.9
	c0,0,0,0,0,0H431.3z"/>
<path class="st7" d="M320,28.8h65.9c1.1,0,2,0.9,2,2v0.4c0,1.1-0.9,2-2,2H320c-1.1,0-2-0.9-2-2v-0.4C318,29.7,318.9,28.8,320,28.8z"
	/>
<circle class="st7" cx="402.8" cy="30.6" r="2.6"/>
<linearGradient id="SVGID_4_" gradientUnits="userSpaceOnUse" x1="771.8766" y1="158.0662" x2="771.8766" y2="435.3245" gradientTransform="matrix(1 0 0 -1 -238.99 685.78)">
	<stop  offset="0" style="stop-color:#808080;stop-opacity:0.25"/>
	<stop  offset="0.54" style="stop-color:#808080;stop-opacity:0.12"/>
	<stop  offset="1" style="stop-color:#808080;stop-opacity:0.1"/>
</linearGradient>
<path class="st8" d="M565.8,526.7L565.8,526.7c-22.6,5.2-38.1-9.5-43.3-32.1L470.6,302c-5.2-22.6,8.9-45.2,31.5-50.5l0,0
	c22.6-5.2,45.2,8.9,50.5,31.5L595,480.6C600.2,503.2,588.3,521.4,565.8,526.7z"/>
<path class="st2" d="M504.4,261.3L504.4,261.3c19-4.4,38,7.5,42.4,26.5l47.7,206.4c4.4,19-7.5,38-26.5,42.4l0,0
	c-19,4.4-38-7.5-42.4-26.5l-47.7-206.4C473.5,284.7,485.4,265.7,504.4,261.3z"/>
<linearGradient id="SVGID_5_" gradientUnits="userSpaceOnUse" x1="683.92" y1="-69.38" x2="683.92" y2="-0.38" gradientTransform="matrix(1 0 0 -1 -238.99 685.77)">
	<stop  offset="0" style="stop-color:#808080;stop-opacity:0.25"/>
	<stop  offset="0.54" style="stop-color:#808080;stop-opacity:0.12"/>
	<stop  offset="1" style="stop-color:#808080;stop-opacity:0.1"/>
</linearGradient>
<rect x="296.9" y="686.2" class="st9" width="296" height="69"/>
<rect x="304.9" y="694.2" class="st10" width="280" height="54"/>
<linearGradient id="SVGID_6_" gradientUnits="userSpaceOnUse" x1="432.875" y1="256.8022" x2="432.875" y2="380.2077" gradientTransform="matrix(1 0 0 -1 -238.99 685.78)">
	<stop  offset="0" style="stop-color:#808080;stop-opacity:0.25"/>
	<stop  offset="0.54" style="stop-color:#808080;stop-opacity:0.12"/>
	<stop  offset="1" style="stop-color:#808080;stop-opacity:0.1"/>
</linearGradient>
<path class="st11" d="M263,411.4L263,411.4c-11.1,17.5-34.3,22.8-51.9,11.8L136.6,375c-17.5-11.1-22.8-34.3-11.8-51.9l0,0
	c11.1-17.5,34.3-22.8,51.9-11.8l74.6,48.3C268.7,370.7,274,393.9,263,411.4z"/>
<linearGradient id="SVGID_7_" gradientUnits="userSpaceOnUse" x1="428.0528" y1="154.5103" x2="428.0528" y2="264.0296" gradientTransform="matrix(1 0 0 -1 -238.99 685.78)">
	<stop  offset="0" style="stop-color:#808080;stop-opacity:0.25"/>
	<stop  offset="0.54" style="stop-color:#808080;stop-opacity:0.12"/>
	<stop  offset="1" style="stop-color:#808080;stop-opacity:0.1"/>
</linearGradient>
<path class="st12" d="M244.3,513.6L244.3,513.6c-11.2,17.7-34.6,23-52.3,11.9l-46.2-33.7c-17.7-11.2-23-34.6-11.9-52.3l0,0
	c11.2-17.7,34.6-23,52.3-11.9l46.2,33.7C250.1,472.4,255.4,495.8,244.3,513.6z"/>
<g class="st13">
	
		<linearGradient id="SVGID_8_" gradientUnits="userSpaceOnUse" x1="352.52" y1="377.07" x2="352.52" y2="556.95" gradientTransform="matrix(1 0 0 -1 0 758)">
		<stop  offset="0" style="stop-color:#808080;stop-opacity:0.25"/>
		<stop  offset="0.54" style="stop-color:#808080;stop-opacity:0.12"/>
		<stop  offset="1" style="stop-color:#808080;stop-opacity:0.1"/>
	</linearGradient>
	<circle class="st14" cx="352.5" cy="291" r="89.9"/>
</g>
<circle class="st5" cx="352.5" cy="291" r="84.6"/>
<polygon class="st6" points="315.8,279.7 347.5,308.8 392.5,242.7 408.4,255.9 347.5,335.3 302.5,285 "/>
<path class="st2" d="M240.5,511.1L240.5,511.1c-10.4,16.5-32.3,21.4-48.8,11.1l-43.1-31.4c-16.5-10.4-21.4-32.3-11.1-48.8l0,0
	c10.4-16.5,32.3-21.4,48.8-11.1l43.1,31.4C245.9,472.8,250.9,494.5,240.5,511.1z"/>
<path class="st2" d="M258.9,408.8L258.9,408.8c-10.4,16.5-32.3,21.4-48.8,11.1l-70.2-45.4c-16.5-10.4-21.4-32.3-11.1-48.8l0,0
	c10.4-16.5,32.3-21.4,48.8-11.1l70.2,45.4C264.3,370.4,269.3,392.2,258.9,408.8z"/>
<linearGradient id="SVGID_9_" gradientUnits="userSpaceOnUse" x1="442.045" y1="358.3764" x2="442.045" y2="495.4036" gradientTransform="matrix(1 0 0 -1 -238.99 685.78)">
	<stop  offset="0" style="stop-color:#808080;stop-opacity:0.25"/>
	<stop  offset="0.54" style="stop-color:#808080;stop-opacity:0.12"/>
	<stop  offset="1" style="stop-color:#808080;stop-opacity:0.1"/>
</linearGradient>
<path class="st15" d="M282.3,309.8L282.3,309.8c-11.2,17.6-34.4,22.9-52.1,11.8l-94.5-61.5c-17.6-11.2-22.9-34.4-11.8-52.1l0,0
	c11.2-17.6,34.4-22.9,52.1-11.8l94.5,61.5C288,268.8,293.3,292.1,282.3,309.8z"/>
<path class="st2" d="M277.3,306.6L277.3,306.6c-10.4,16.5-32.3,21.4-48.8,11.1L140,260c-16.5-10.4-21.4-32.3-11.1-48.8l0,0
	c10.4-16.5,32.3-21.4,48.8-11.1l88.5,57.6C282.7,268.2,287.6,290,277.3,306.6z"/>
</svg>
